HIERARCHY
ROOT Hips
{
	OFFSET 0.000000 0.000000 0.000000
	CHANNELS 6 Xposition Yposition Zposition Zrotation Yrotation Xrotation 
	JOINT LHipJoint
	{
		OFFSET 0.000000 0.000000 0.000000
		CHANNELS 3 Zrotation Yrotation Xrotation
		JOINT LeftUpLeg
		{
			OFFSET 1.363060 -1.794630 0.839290
			CHANNELS 3 Zrotation Yrotation Xrotation
			JOINT LeftLeg
			{
				OFFSET 2.448110 -6.726130 0.000000
				CHANNELS 3 Zrotation Yrotation Xrotation
				JOINT LeftFoot
				{
					OFFSET 2.562200 -7.039590 0.000000
					CHANNELS 3 Zrotation Yrotation Xrotation
					JOINT LeftToeBase
					{
						OFFSET 0.157640 -0.433110 2.322550
						CHANNELS 3 Zrotation Yrotation Xrotation
						End Site
						{
							OFFSET 0.000000 0.000000 0.000000
						}
					}
				}
			}
		}
	}
	JOINT RHipJoint
	{
		OFFSET 0.000000 0.000000 0.000000
		CHANNELS 3 Zrotation Yrotation Xrotation
		JOINT RightUpLeg
		{
			OFFSET -1.305520 -1.794630 0.839290
			CHANNELS 3 Zrotation Yrotation Xrotation
			JOINT RightLeg
			{
				OFFSET -2.542530 -6.985550 0.000000
				CHANNELS 3 Zrotation Yrotation Xrotation
				JOINT RightFoot
				{
					OFFSET -2.568260 -7.056230 0.000000
					CHANNELS 3 Zrotation Yrotation Xrotation
					JOINT RightToeBase
					{
						OFFSET -0.164730 -0.452590 2.363150
						CHANNELS 3 Zrotation Yrotation Xrotation
						End Site
						{
							OFFSET 0.000000 0.000000 0.000000
						}
					}
				}
			}
		}
	}
}
MOTION
Frames: 28
Frame Time: 0.008333
4.785180 17.321345 1.044261 -10.156385 -83.663719 20.827468 -11.398345 3.121148 3.826985 -5.544911 10.561855 -15.050570 -2.472772 -1.392530 -1.294518 0.266975 1.786497 -0.207462 0.405700 -0.000000 -30.106900 8.763159 -2.541249 3.762800 7.936894 -4.384294 -7.856938 2.342845 2.493647 -4.999980 -2.135470 -12.345912 -1.879931 -2.285000 0.000000 -26.903300
4.775123 17.321884 1.041768 -8.677061 -82.651428 19.514178 -11.304628 3.148548 4.014764 -5.477257 9.622976 -15.255598 -2.451162 -1.385750 -1.269189 0.254616 1.685603 -0.099873 0.403600 -0.000000 -30.213400 8.829678 -2.505681 3.699996 8.034901 -4.701060 -7.826276 2.293341 2.530872 -5.127954 -2.274018 -13.048966 -1.995800 -2.376399 0.000000 -26.507700
4.766307 17.322384 1.039008 -7.477933 -81.603796 18.486436 -11.209500 3.165065 4.196330 -5.405194 8.668233 -15.459441 -2.429623 -1.382145 -1.250354 0.241484 1.590338 0.020488 0.402700 -0.000000 -30.314600 8.898246 -2.474986 3.631771 8.133735 -5.033990 -7.803201 2.243242 2.564188 -5.265753 -2.413382 -13.747950 -2.106533 -2.466800 0.000000 -26.115100
4.758721 17.322792 1.035972 -6.481784 -80.535806 17.668008 -11.114267 3.171925 4.369829 -5.330568 7.709542 -15.660303 -2.408929 -1.381214 -1.240628 0.227539 1.499278 0.153519 0.402799 -0.000000 -30.411400 8.968110 -2.447991 3.557425 8.231024 -5.382036 -7.787088 2.193415 2.593921 -5.412174 -2.551182 -14.432627 -2.211016 -2.555100 0.000001 -25.729400
4.752572 17.323094 1.032642 -5.641242 -79.460468 17.010621 -11.020143 3.169592 4.532848 -5.256118 6.763036 -15.861887 -2.390284 -1.382419 -1.237425 0.212160 1.406059 0.297975 0.402999 0.000000 -30.505000 9.038295 -2.423974 3.477815 8.325895 -5.740525 -7.779853 2.144673 2.620467 -5.566872 -2.685719 -15.095940 -2.308166 -2.640600 0.000000 -25.354000
4.748045 17.323385 1.028970 -4.913419 -78.391576 16.469038 -10.927929 3.158421 4.682384 -5.185107 5.839808 -16.057833 -2.374118 -1.385533 -1.246735 0.195511 1.312402 0.457018 0.403300 -0.000000 -30.595700 9.108775 -2.402007 3.391743 8.413988 -6.107468 -7.778837 2.097433 2.643481 -5.729340 -2.814583 -15.728087 -2.395008 -2.722700 0.000000 -24.994800
4.745102 17.323703 1.024924 -4.274191 -77.338077 16.020867 -10.838254 3.138755 4.817513 -5.121338 4.957268 -16.256803 -2.362069 -1.390576 -1.261671 0.176487 1.208847 0.629207 0.402500 0.000000 -30.683600 9.177353 -2.380169 3.297267 8.499265 -6.469811 -7.871720 2.049181 2.647248 -5.714161 -2.913498 -16.322185 -2.576403 -2.802000 0.000000 -24.650900
4.744105 17.324250 1.020316 -3.691343 -76.313356 15.627180 -10.751801 3.110303 4.932751 -5.070047 4.125279 -16.442187 -2.354159 -1.397141 -1.292749 0.155531 1.100258 0.821040 0.401200 0.000000 -30.766600 9.245161 -2.357973 3.192637 8.572495 -6.830451 -8.014093 2.001190 2.637316 -5.599213 -2.987811 -16.869454 -2.804476 -2.877700 0.000001 -24.328400
4.744971 17.325160 1.015172 -3.156265 -75.321386 15.290328 -10.669736 3.072751 5.028388 -5.033885 3.351406 -16.634411 -2.351221 -1.404971 -1.328615 0.132343 0.982428 1.030156 0.398700 -0.000001 -30.844901 9.311114 -2.336960 3.085999 8.634793 -7.177140 -8.176336 1.955230 2.623068 -5.479440 -3.050524 -17.380194 -3.023681 -2.952600 -0.000000 -24.022401
4.747887 17.326617 1.009331 -2.649424 -74.370041 14.987989 -10.592570 3.025645 5.101046 -5.016649 2.641850 -16.825045 -2.353197 -1.413767 -1.372873 0.107345 0.859437 1.260315 0.395301 -0.000000 -30.915300 9.375402 -2.316510 2.975600 8.682046 -7.507982 -8.351803 1.910951 2.603846 -5.356604 -3.101515 -17.851349 -3.229408 -3.027200 0.000000 -23.732800
4.753310 17.328856 1.002451 -2.155051 -73.469560 14.692126 -10.520889 2.968313 5.144972 -5.022883 2.006495 -16.993340 -2.359882 -1.422917 -1.432215 0.080884 0.735035 1.516436 0.391600 0.000000 -30.971100 9.438776 -2.295740 2.857064 8.707010 -7.826518 -8.524368 1.867988 2.578395 -5.235108 -3.141099 -18.274216 -3.414226 -3.099700 -0.000000 -23.460200
4.761058 17.331987 0.994495 -1.667904 -72.620758 14.404845 -10.455246 2.900631 5.161960 -5.052422 1.441071 -17.148309 -2.370718 -1.432307 -1.500027 0.053887 0.615710 1.796422 0.388300 0.000000 -31.012300 9.500087 -2.274977 2.733611 8.712045 -8.124199 -8.697949 1.826204 2.547680 -5.119611 -3.172426 -18.656474 -3.574063 -3.172100 -0.000000 -23.201000
4.771518 17.336163 0.985267 -1.190389 -71.832414 14.117306 -10.396605 2.822156 5.148870 -5.106141 0.956699 -17.280347 -2.385467 -1.441375 -1.574762 0.026411 0.501199 2.099371 0.385300 0.000001 -31.032200 9.558947 -2.254663 2.604547 8.696197 -8.401937 -8.859941 1.785959 2.511683 -5.019323 -3.198325 -18.992930 -3.699291 -3.242200 0.000000 -22.952000
4.784581 17.341389 0.974644 -0.714850 -71.110676 13.820391 -10.345432 2.733373 5.106216 -5.183261 0.549326 -17.381955 -2.402973 -1.449929 -1.657426 -0.000120 0.402411 2.423073 0.384100 0.000000 -31.029201 9.615000 -2.234844 2.469607 8.658384 -8.659930 -9.003504 1.747284 2.470648 -4.939427 -3.220907 -19.281625 -3.783770 -3.309300 -0.000000 -22.714900
4.800127 17.347675 0.962696 -0.257514 -70.464251 13.526763 -10.302857 2.635096 5.035776 -5.279602 0.229541 -17.460741 -2.422971 -1.457872 -1.738608 -0.025807 0.316063 2.759533 0.384100 0.000000 -31.001800 9.666647 -2.217568 2.334419 8.605547 -8.892047 -9.126744 1.711485 2.426547 -4.892366 -3.244964 -19.520808 -3.818910 -3.370800 0.000000 -22.487199
4.818031 17.354855 0.949329 0.187178 -69.904845 13.223582 -10.269449 2.528591 4.937478 -5.393873 -0.001054 -17.502360 -2.444374 -1.465099 -1.823242 -0.049489 0.250706 3.104959 0.386800 0.000000 -30.948500 9.713824 -2.203048 2.197859 8.535717 -9.102682 -9.219040 1.678999 2.379422 -4.882101 -3.270913 -19.701117 -3.799226 -3.424400 0.000000 -22.274500
4.837852 17.362788 0.934836 0.602127 -69.443213 12.927855 -10.245852 2.415899 4.816030 -5.519839 -0.134375 -17.518737 -2.466815 -1.472076 -1.903647 -0.071125 0.204176 3.448711 0.391800 0.000000 -30.874400 9.755117 -2.193928 2.067864 8.457941 -9.284770 -9.284394 1.651565 2.331838 -4.919138 -3.301973 -19.817874 -3.718884 -3.467000 -0.000000 -22.081000
4.859014 17.371196 0.919364 0.984623 -69.091750 12.640765 -10.232328 2.299310 4.674358 -5.653532 -0.164375 -17.508761 -2.489869 -1.479318 -1.980945 -0.090409 0.177522 3.783246 0.399500 0.000000 -30.784800 9.790236 -2.191803 1.948308 8.375683 -9.437391 -9.321943 1.630261 2.285016 -5.007089 -3.337973 -19.861821 -3.576068 -3.495500 -0.000000 -21.913600
4.881023 17.379804 0.903172 1.327132 -68.861185 12.366197 -10.228887 2.181133 4.515883 -5.790816 -0.083860 -17.474216 -2.513349 -1.487452 -2.055832 -0.107435 0.168625 4.101191 0.409600 0.000000 -30.687000 9.819006 -2.198410 1.843879 8.293121 -9.559194 -9.333961 1.616276 2.240162 -5.147798 -3.377492 -19.823420 -3.371001 -3.507200 -0.000000 -21.783801
4.903084 17.388313 0.886520 1.627701 -68.759806 12.107570 -10.235127 2.063927 4.344409 -5.928205 0.112731 -17.418266 -2.537448 -1.497320 -2.129987 -0.122563 0.173634 4.396468 0.421600 -0.000000 -30.591300 9.841726 -2.215517 1.759052 8.214091 -9.649721 -9.324844 1.610553 2.198258 -5.339578 -3.417395 -19.693996 -3.107579 -3.499900 0.000000 -21.699201
4.924493 17.396464 0.869725 1.883862 -68.791445 11.867147 -10.250417 1.949945 4.163208 -6.062771 0.429409 -17.343823 -2.562517 -1.509631 -2.205738 -0.136438 0.186416 4.664903 0.434300 0.000000 -30.508000 9.858865 -2.244251 1.697183 8.141545 -9.709177 -9.299880 1.613743 2.159947 -5.577848 -3.453355 -19.466752 -2.792866 -3.472000 -0.000000 -21.667400
4.944409 17.404029 0.853072 2.096244 -68.954534 11.647145 -10.273725 1.841468 3.975704 -6.192323 0.865442 -17.253395 -2.589053 -1.525124 -2.287309 -0.149772 0.200675 4.904848 0.446600 -0.000000 -30.445700 9.871249 -2.285281 1.660140 8.077458 -9.739533 -9.264848 1.626035 2.125370 -5.853426 -3.479815 -19.139044 -2.436334 -3.423700 -0.000000 -21.697500
4.962024 17.410833 0.836800 2.267250 -69.241608 11.448160 -10.303697 1.740911 3.785312 -6.315096 1.416031 -17.149307 -2.617624 -1.544180 -2.377845 -0.163418 0.208488 5.116549 0.456900 -0.000000 -30.412200 9.879878 -2.338412 1.648569 8.022889 -9.743495 -9.225365 1.647183 2.094566 -6.154592 -3.491002 -18.712777 -2.050953 -3.356400 0.000000 -21.790701
4.976819 17.416826 0.821162 2.391776 -69.633995 11.269810 -10.337497 1.650631 3.598616 -6.428529 2.069529 -17.030751 -2.648801 -1.567677 -2.480440 -0.178512 0.202285 5.303211 0.463900 -0.000000 -30.411500 9.877977 -2.395565 1.651297 7.983910 -9.710852 -9.392368 1.677696 2.027590 -5.999604 -3.415853 -18.186639 -1.921168 -3.273000 0.000000 -21.946100
4.988127 17.421967 0.806323 2.474992 -70.116320 11.113883 -10.373983 1.573977 3.418906 -6.531333 2.808555 -16.901136 -2.682409 -1.594484 -2.597750 -0.195136 0.177008 5.467712 0.466100 0.000000 -30.445500 9.872044 -2.460321 1.675351 7.955427 -9.655914 -9.608862 1.716681 1.955477 -5.731974 -3.307229 -17.584846 -1.853729 -3.177700 0.000000 -22.154300
4.995633 17.426309 0.792399 2.516603 -70.666599 10.979871 -10.411328 1.514721 3.252124 -6.621308 3.608173 -16.760836 -2.717776 -1.623323 -2.731970 -0.213082 0.130706 5.613977 0.463000 -0.000001 -30.511700 9.865580 -2.532288 1.722270 7.934724 -9.586679 -9.805963 1.761762 1.891361 -5.488062 -3.186603 -16.934632 -1.776246 -3.076100 0.000000 -22.405900
4.999223 17.429885 0.779464 2.516704 -71.257534 10.866205 -10.447645 1.476723 3.105383 -6.695960 4.437439 -16.609389 -2.753847 -1.652693 -2.882794 -0.231877 0.063988 5.746104 0.454500 -0.000000 -30.605000 9.859907 -2.608753 1.789998 7.920194 -9.507767 -9.966050 1.810223 1.838180 -5.284518 -3.058986 -16.265270 -1.686212 -2.974500 0.000000 -22.685799
4.998914 17.432780 0.767520 2.480138 -71.858048 10.768127 -10.481710 1.462454 2.983946 -6.752939 5.260738 -16.445677 -2.789208 -1.680898 -3.047775 -0.250768 -0.020028 5.866846 0.441200 0.000000 -30.718600 9.855759 -2.686359 1.874080 7.909549 -9.423590 -10.071605 1.858766 1.798345 -5.136189 -2.930558 -15.610736 -1.583216 -2.879100 -0.000000 -22.977201
